<svg xmlns="http://www.w3.org/2000/svg" width="108" height="108" style="shape-rendering:geometricPrecision;text-rendering:geometricPrecision;image-rendering:optimizeQuality;fill-rule:evenodd;clip-rule:evenodd"><circle cx="53" cy="53" r="53" fill="#1a1a1a" opacity=".994"/><circle cx="53" cy="53" r="50.5" fill="#f0f0f0" opacity=".999"/><path style="opacity:1" fill="#050505" d="M43.5 8.5q39.812-4.237 53.5 33 7.116 40.852-31.5 55.5-19.305 5.052-36-5.5 5.364-11.435 18-9.5a32.5 32.5 0 0 0 7-3 366 366 0 0 1 22-29Q93.115 51.886 90 35.5q-6.29-10.765-17.5-5a3.65 3.65 0 0 1-1.5-1 50 50 0 0 0 0-11 4.94 4.94 0 0 0-2.5-1q-17.958 5.973 0 12.5 1.425 1.076.5 2.5a162 162 0 0 0-10.5 6q-1.041-6.32-2-12.5-5.42-.312-10 3-1.58 2.082-.5 4.5a83 83 0 0 1 9.5 5.5q-4.905 5.205-12 6.5 3.648-21.855-12-6.5.39 1.892 2 3a39.8 39.8 0 0 1 9 5 59.3 59.3 0 0 1-13 6.5q4.097-21.425-12-7a18 18 0 0 0 2 3.5q5.178 1.338 9 5-3.904 1.325-6.5 4.5.123 7.493 0 15a21.5 21.5 0 0 1-5 6Q-4.471 46.324 24.5 18q8.818-6.41 19-9.5"/><path style="opacity:1" fill="#111" d="M69.5 39.5q5.457-1.145 4.5 4-3.74 2.169-5.5-2 .544-1.026 1-2"/><path style="opacity:1" fill="#141414" d="M56.5 46.5q5.775.3 3 5.5-5.945.177-3-5.5"/><path style="opacity:1" fill="#060606" d="M42.5 54.5q5.115-.175 4 5-6.652.866-4-5"/><path style="opacity:1" fill="#121212" d="M28.5 62.5q5.863-1.145 4 4-6.54 2.46-4-4"/></svg>