<svg xmlns="http://www.w3.org/2000/svg" width="108" height="108" style="shape-rendering:geometricPrecision;text-rendering:geometricPrecision;image-rendering:optimizeQuality;fill-rule:evenodd;clip-rule:evenodd"><circle cx="53" cy="53" r="53" fill="#1a1a1a" opacity=".994"/><circle cx="53" cy="53" r="50.5" fill="#f0f0f0" opacity=".999"/><path style="opacity:1" fill="#040404" d="M43.5 8.5q36.784-3.993 52.5 29a8.4 8.4 0 0 1 .5 4h-29v4a241 241 0 0 1 31 1q-1.783 1.393-4 1a13.1 13.1 0 0 1-1 7 3.65 3.65 0 0 1-1.5-1 18.4 18.4 0 0 1-.5-6h-16q-1 14-2 0h-7v12q-23.172-6.062-40.5 10A65.3 65.3 0 0 1 27.5 46a31.3 31.3 0 0 1-2-11.5h-3q.085 5.92-2 11.5A86.7 86.7 0 0 1 22 73.5l-5 7q-14.575-22.918-4-48a9.6 9.6 0 0 1 3-3q11.949 6.676 25.5 5.5 11.328-1.264 7.5-11.5a52.6 52.6 0 0 0-14.5-11 903 903 0 0 0 9-4"/><path style="opacity:1" fill="#1a1a1a" d="M26.5 16.5q4.018.037 4 4-5.374.44-4-4"/><path style="opacity:1" fill="#131313" d="M48.5 60.5q25.392-1.476 38.5 20 1.083 3.242-2 5Q67.382 55.128 35.5 70q-7.937 5.61-12 14.5-2.556 1.985-4-1 8.847-18.868 29-23"/><path style="opacity:1" fill="#050505" d="M81.5 69.5q6.773-1.968 14 0-7.074 1.913-14 0"/><path style="opacity:1" fill="#191919" d="M86.5 75.5q10.353-3.407 3.5 4-1.423-2.39-3.5-4"/></svg>