<svg xmlns="http://www.w3.org/2000/svg" width="108" height="108" style="shape-rendering:geometricPrecision;text-rendering:geometricPrecision;image-rendering:optimizeQuality;fill-rule:evenodd;clip-rule:evenodd"><circle cx="53" cy="53" r="53" fill="#1a1a1a" opacity=".994"/><circle cx="53" cy="53" r="50.5" fill="#f0f0f0" opacity=".999"/><path style="opacity:1" fill="#050505" d="M43.5 8.5q39.793-4.245 53.5 33 5.159 20.7-7 38-6.954-7.902-6.5-18 7.143 2.157 4-5-2.362-1.695-5-.5-.264 2.538-1.5 4.5a86 86 0 0 1-6.5-9q2.667-.105 5.5-1 1.635-4.618-2.5-7-3.047 1.558-4 5a88 88 0 0 1-7-8.5l1.5-1.5q1.256 2.26 3.5 1.5 2.508-4.715-2-7.5-3.047 1.558-4 5a505 505 0 0 1-17-25q-1.238-1.329-3-1a768 768 0 0 1 3.5 39 3.94 3.94 0 0 1-2 1 375 375 0 0 0-36.5-5q-.255 1.983 1 3.5a505 505 0 0 1 25 17q-6.954-.07-4 6 4.432 3.436 7-1.5a7.25 7.25 0 0 0-2-2.5q5.935.723 10 5.5-9.587 3.623-.5 8 5.516-1.73 1.5-5.5l1.5-1.5a90 90 0 0 0 7.5 5q1.625 1.297.5 3-1.5-2-3 0-2.25 7.75 5.5 5.5.895-2.833 1-5.5a19.95 19.95 0 0 0 8 2.5q4.84 1.66 8 5.5-39.868 19.971-64.5-17-16.68-48.127 30.5-66"/><path style="opacity:1" fill="#141414" d="M59.5 39.5q7.34 1.56 1 6-3.358-2.45-1-6"/><path style="opacity:1" fill="#1f1f1f" d="M67.5 50.5q5.775.3 3 5.5-7.167.11-3-5.5"/><path style="opacity:1" fill="#0e0e0e" d="M39.5 59.5h4v5q-6.652.866-4-5"/><path style="opacity:1" fill="#141414" d="M75.5 61.5q2.976-.024 3 3 .099 2.649-2.5 3-4.633-2.556-.5-6"/><path style="opacity:1" fill="#0e0e0e" d="M50.5 67.5h4v5q-6.652.866-4-5"/><path style="opacity:1" fill="#1b1b1b" d="M61.5 74.5q3.687-.408 5 3-3.44 6.04-6-.5.365-1.353 1-2.5"/></svg>