<svg xmlns="http://www.w3.org/2000/svg" width="108" height="108" style="shape-rendering:geometricPrecision;text-rendering:geometricPrecision;image-rendering:optimizeQuality;fill-rule:evenodd;clip-rule:evenodd"><circle cx="53" cy="53" r="53" fill="#1a1a1a" opacity=".994"/><circle cx="53" cy="53" r="50.5" fill="#f0f0f0" opacity=".999"/><path style="opacity:1" fill="#050505" d="M92.5 61.5h-4v20q-19.08 22.274-48 15.5Q27.132 92.947 18 82.5q-.75-10.488-.5-21h-3Q2.78 20.156 43.5 9 74.88 4.111 92 30.5q.75 15.492.5 31"/><path style="opacity:1" fill="#fdfdfd" d="M24.5 23.5h6a362 362 0 0 0 1 38h3v22h-14v-21h4z"/><path style="opacity:1" fill="#fcfcfc" d="M41.5 23.5h6a362 362 0 0 0 1 38h3v22h-14v-21h4zm17 0h10v60h-14v-22h4zm24 0v38h3v22h-13v-60z"/></svg>