<svg xmlns="http://www.w3.org/2000/svg" width="108" height="108" style="shape-rendering:geometricPrecision;text-rendering:geometricPrecision;image-rendering:optimizeQuality;fill-rule:evenodd;clip-rule:evenodd"><circle cx="53" cy="53" r="53" fill="#1a1a1a" opacity=".994"/><circle cx="53" cy="53" r="50.5" fill="#f0f0f0" opacity=".999"/><path style="opacity:1" fill="#040404" d="M43.5 8.5q32.169-4.036 49.5 23Q107.249 64.256 81.5 89q-11.939 9.063-27 9.5 1.71-3.755 2-8h-5a41.6 41.6 0 0 0 1 8Q14.92 95.674 8 58.5q-.537-38.183 35.5-50"/><path style="opacity:1" fill="#f9f9f9" d="M47.5 18.5q18.94-4.035 19 15a70.4 70.4 0 0 1-26-.5q-1.547-9.655 7-14.5"/><path style="opacity:1" fill="#f6f6f6" d="M40.5 37.5q12.33-.096 25 0-3.976 6.989-12 6-8.331.579-13-6"/><path style="opacity:1" fill="#fafafa" d="M46.5 45.5q6.964 1.76 14 0a394 394 0 0 1-1.5 40q-5.43 5.98-11 0a802 802 0 0 1-1.5-40"/></svg>